<?xml version="1.0" standalone="no"?>
<!DOCTYPE svg PUBLIC "-//W3C//DTD SVG 20010904//EN"
 "http://www.w3.org/TR/2001/REC-SVG-20010904/DTD/svg10.dtd">
<svg version="1.0" xmlns="http://www.w3.org/2000/svg"
 width="700.000000pt" height="700.000000pt" viewBox="0 0 700.000000 700.000000"
 preserveAspectRatio="xMidYMid meet">
<metadata>
Created by potrace 1.14, written by Peter Selinger 2001-2017
</metadata>
<g transform="translate(0.000000,700.000000) scale(0.100000,-0.100000)"
fill="#000000" stroke="none">
<path d="M3230 6984 c-283 -42 -582 -167 -820 -342 -101 -74 -311 -288 -383
-389 -166 -233 -272 -484 -323 -765 -22 -119 -29 -372 -15 -498 69 -599 412
-1116 935 -1405 l69 -39 -107 -28 c-215 -56 -423 -135 -651 -248 -753 -374
-1354 -1020 -1675 -1801 -164 -398 -260 -863 -260 -1254 0 -101 3 -125 20
-152 51 -84 180 -83 236 3 14 21 19 60 25 198 42 987 505 1865 1296 2458 446
333 955 538 1531 615 178 24 607 24 787 0 380 -51 689 -144 1030 -312 810
-398 1418 -1121 1670 -1986 73 -253 125 -585 125 -806 0 -54 5 -114 10 -134
31 -112 190 -135 250 -36 52 85 4 599 -89 957 -283 1089 -1073 1973 -2131
2385 -119 47 -371 126 -435 137 -15 2 -1 14 50 42 776 431 1133 1350 849 2185
-198 582 -684 1029 -1282 1180 -200 51 -505 66 -712 35z m587 -293 c133 -29
233 -65 358 -126 435 -212 732 -595 837 -1079 30 -137 32 -455 5 -586 -41
-193 -102 -354 -189 -500 -293 -490 -830 -783 -1388 -757 -299 14 -557 100
-810 268 -123 81 -314 271 -398 396 -123 182 -209 389 -248 598 -26 137 -26
431 0 560 129 649 629 1134 1281 1241 122 20 434 12 552 -15z"/>
</g>
</svg>
