<svg xmlns="http://www.w3.org/2000/svg" class="css-ze2te4 css-qd6ojx" viewBox="0 0 80.00000000000001 79.99644655541357"><g transform="translate(-4.440691467087746, -4.44424703085631) scale(0.888849406171262)" class="css-17ivn46" fill="#000000"><path xmlns="http://www.w3.org/2000/svg" d="M50,5C37.09,5,26.625,15.465,26.625,28.375S37.09,51.75,50,51.75s23.375-10.465,23.375-23.375S62.91,5,50,5z M50,48.25  c-10.977,0-19.875-8.898-19.875-19.875C30.125,17.398,39.023,8.5,50,8.5s19.875,8.898,19.875,19.875  C69.875,39.352,60.977,48.25,50,48.25z"/><g xmlns="http://www.w3.org/2000/svg"><path d="M95,93.25c0-24.853-20.147-45-45-45s-45,20.147-45,45h3.5c0-22.92,18.58-41.5,41.5-41.5s41.5,18.58,41.5,41.5H95z"/><circle cx="6.746" cy="93.25" r="1.75"/><circle cx="93.246" cy="93.25" r="1.75"/></g></g></svg>