<svg xmlns="http://www.w3.org/2000/svg" width="385.5585946992817" height="261.35625000000005" viewBox="0 0 312.5 211.83246657671296" class="css-1j8o68f"><defs id="SvgjsDefs1183"/><g id="SvgjsG1184" featurekey="rootContainer" transform="matrix(2.6916451688813487,0,0,2.6916451688813487,0,0)" fill="#000000"><path xmlns="http://www.w3.org/2000/svg" d="M116.1 78.7H0V0h116.1zM2 76.7h112.1V2H2z"/></g><g id="SvgjsG1185" featurekey="symbolFeature-0" transform="matrix(0.888849406171262,0,0,0.888849406171262,111.55930853291225,36.55575296914369)" fill="#000000"><path xmlns="http://www.w3.org/2000/svg" d="M50,5C37.09,5,26.625,15.465,26.625,28.375S37.09,51.75,50,51.75s23.375-10.465,23.375-23.375S62.91,5,50,5z M50,48.25  c-10.977,0-19.875-8.898-19.875-19.875C30.125,17.398,39.023,8.5,50,8.5s19.875,8.898,19.875,19.875  C69.875,39.352,60.977,48.25,50,48.25z"/><g xmlns="http://www.w3.org/2000/svg"><path d="M95,93.25c0-24.853-20.147-45-45-45s-45,20.147-45,45h3.5c0-22.92,18.58-41.5,41.5-41.5s41.5,18.58,41.5,41.5H95z"/><circle cx="6.746" cy="93.25" r="1.75"/><circle cx="93.246" cy="93.25" r="1.75"/></g></g><g id="SvgjsG1186" featurekey="nameFeature-0" transform="matrix(0.9987864933085678,0,0,0.9987864933085678,54.72151259703767,129.57388293565748)" fill="#000000"><path d="M11.68 18.76 c6.0268 0.02668 9.04 1.9866 9.04 5.88 l0 10.96 c0 2.0267 0.24 3.4934 0.72 4.4 l-5.76 0 c-0.21332 -0.64 -0.34664 -1.3067 -0.39996 -2 c-1.68 1.7067 -4 2.56 -6.96 2.56 c-2.16 0 -3.8733 -0.54668 -5.14 -1.64 s-1.9 -2.6133 -1.9 -4.56 c0 -1.8933 0.6 -3.36 1.8 -4.4 c1.2267 -1.0933 3.4534 -1.7866 6.68 -2.08 c2.2933 -0.24 3.7466 -0.54 4.36 -0.9 s0.92 -0.91332 0.92 -1.66 c0 -0.93332 -0.28 -1.6266 -0.84 -2.08 s-1.4933 -0.68 -2.8 -0.68 c-1.2 0 -2.1067 0.24668 -2.72 0.74 s-0.97332 1.2866 -1.08 2.38 l-5.68 0 c0.13332 -2.2667 1.0666 -3.9867 2.8 -5.16 s4.0532 -1.76 6.96 -1.76 z M6.96 34.12 c0 1.76 1.16 2.64 3.48 2.64 c3.04 -0.02668 4.5732 -1.5867 4.6 -4.68 l0 -2.2 c-0.45332 0.45332 -1.6 0.78664 -3.44 0.99996 c-1.6 0.18668 -2.7733 0.51336 -3.52 0.98004 s-1.12 1.22 -1.12 2.26 z M30.987000000000002 19.32 l3.64 5.4 l3.6 -5.4 l6.28 0 l-6.8 9.68 l7.64 11 l-6.48 0 l-4.32 -6.52 l-4.32 6.52 l-6.36 0 l7.44 -10.88 l-6.8 -9.8 l6.48 0 z M57.974000000000004 18.76 c1.9467 0 3.6801 0.45328 5.2 1.36 s2.7133 2.22 3.58 3.94 s1.3 3.7 1.3 5.94 c0 0.21332 -0.01332 0.56 -0.04 1.04 l-14.92 0 c0.05332 1.6533 0.48664 2.94 1.3 3.86 s2.06 1.38 3.74 1.38 c1.04 0 1.9933 -0.26 2.86 -0.78 s1.42 -1.1533 1.66 -1.9 l5 0 c-1.4667 4.64 -4.6932 6.96 -9.68 6.96 c-1.8933 -0.02668 -3.6466 -0.44 -5.26 -1.24 s-2.9 -2.0467 -3.86 -3.74 s-1.44 -3.66 -1.44 -5.9 c0 -2.1067 0.48668 -4.0268 1.46 -5.76 s2.2666 -3.0266 3.88 -3.88 s3.3533 -1.28 5.22 -1.28 z M62.334 27.439999999999998 c-0.26668 -1.5467 -0.76 -2.6667 -1.48 -3.36 s-1.7467 -1.04 -3.08 -1.04 c-1.3867 0 -2.48 0.39332 -3.28 1.18 s-1.2667 1.86 -1.4 3.22 l9.24 0 z M78.12100000000001 11.440000000000001 l0 28.56 l-5.68 0 l0 -28.56 l5.68 0 z M112.49500000000002 19.32 l0 4.28 l-10.76 12.12 l11.52 0 l0 4.28 l-19 0 l0 -4.28 l10.76 -12.12 l-9.96 0 l0 -4.28 l17.44 0 z M126.72200000000001 18.76 c6.0268 0.02668 9.04 1.9866 9.04 5.88 l0 10.96 c0 2.0267 0.24 3.4934 0.72 4.4 l-5.76 0 c-0.21332 -0.64 -0.34664 -1.3067 -0.39996 -2 c-1.68 1.7067 -4 2.56 -6.96 2.56 c-2.16 0 -3.8733 -0.54668 -5.14 -1.64 s-1.9 -2.6133 -1.9 -4.56 c0 -1.8933 0.6 -3.36 1.8 -4.4 c1.2267 -1.0933 3.4534 -1.7866 6.68 -2.08 c2.2933 -0.24 3.7466 -0.54 4.36 -0.9 s0.92 -0.91332 0.92 -1.66 c0 -0.93332 -0.28 -1.6266 -0.84 -2.08 s-1.4933 -0.68 -2.8 -0.68 c-1.2 0 -2.1067 0.24668 -2.72 0.74 s-0.97332 1.2866 -1.08 2.38 l-5.68 0 c0.13332 -2.2667 1.0666 -3.9867 2.8 -5.16 s4.0532 -1.76 6.96 -1.76 z M122.00200000000001 34.12 c0 1.76 1.16 2.64 3.48 2.64 c3.04 -0.02668 4.5732 -1.5867 4.6 -4.68 l0 -2.2 c-0.45332 0.45332 -1.6 0.78664 -3.44 0.99996 c-1.6 0.18668 -2.7733 0.51336 -3.52 0.98004 s-1.12 1.22 -1.12 2.26 z M153.14900000000003 18.76 c0.48 0 0.89336 0.06668 1.24 0.2 l0 5.28 c-0.61332 -0.13332 -1.2933 -0.2 -2.04 -0.2 c-3.7333 0 -5.6 2.2133 -5.6 6.64 l0 9.32 l-5.68 0 l0 -20.68 l5.4 0 l0 3.84 l0.08 0 c0.56 -1.3333 1.4467 -2.4 2.66 -3.2 s2.5266 -1.2 3.94 -1.2 z M166.37600000000003 18.76 c1.9467 0 3.6801 0.45328 5.2 1.36 s2.7133 2.22 3.58 3.94 s1.3 3.7 1.3 5.94 c0 0.21332 -0.01332 0.56 -0.04 1.04 l-14.92 0 c0.05332 1.6533 0.48664 2.94 1.3 3.86 s2.06 1.38 3.74 1.38 c1.04 0 1.9933 -0.26 2.86 -0.78 s1.42 -1.1533 1.66 -1.9 l5 0 c-1.4667 4.64 -4.6932 6.96 -9.68 6.96 c-1.8933 -0.02668 -3.6466 -0.44 -5.26 -1.24 s-2.9 -2.0467 -3.86 -3.74 s-1.44 -3.66 -1.44 -5.9 c0 -2.1067 0.48668 -4.0268 1.46 -5.76 s2.2666 -3.0266 3.88 -3.88 s3.3533 -1.28 5.22 -1.28 z M170.73600000000005 27.439999999999998 c-0.26668 -1.5467 -0.76 -2.6667 -1.48 -3.36 s-1.7467 -1.04 -3.08 -1.04 c-1.3867 0 -2.48 0.39332 -3.28 1.18 s-1.2667 1.86 -1.4 3.22 l9.24 0 z M186.36300000000003 11.440000000000001 l0.000039062 10.4 l0.08 0 c0.61332 -0.93332 1.4866 -1.68 2.62 -2.24 s2.4333 -0.84 3.9 -0.84 c2.5333 0 4.5932 1.0133 6.18 3.04 s2.38 4.64 2.38 7.84 c0 3.2267 -0.78668 5.8532 -2.36 7.88 s-3.6533 3.04 -6.24 3.04 c-3.36 0 -5.6132 -1.0667 -6.76 -3.2 l-0.08 0 l0 2.64 l-5.4 0 l0 -28.56 l5.68 0 z M186.163 29.68 c0 2 0.43996 3.6 1.32 4.8 s2.0533 1.8 3.52 1.8 c1.44 0 2.6067 -0.58668 3.5 -1.76 s1.34 -2.7866 1.34 -4.84 c0 -2.0267 -0.43332 -3.64 -1.3 -4.84 s-2.06 -1.8 -3.58 -1.8 c-1.4933 0 -2.6666 0.61332 -3.52 1.84 s-1.28 2.8267 -1.28 4.8 z"/></g></svg>